<svg xmlns="http://www.w3.org/2000/svg" width="2400" height="1600" viewBox="0 0 2400 1600">
  <defs>
    <linearGradient id="bg" x1="0" y1="0" x2="1" y2="1">
      <stop offset="0" stop-color="#0f1b2e" />
      <stop offset="0.55" stop-color="#0b1220" />
      <stop offset="1" stop-color="#070a12" />
    </linearGradient>
    <linearGradient id="desk" x1="0" y1="0" x2="0" y2="1">
      <stop offset="0" stop-color="#0f172a" stop-opacity="0" />
      <stop offset="0.6" stop-color="#0b1220" stop-opacity="0.25" />
      <stop offset="1" stop-color="#050711" stop-opacity="0.85" />
    </linearGradient>
    <radialGradient id="bokeh1" cx="78%" cy="28%" r="46%">
      <stop offset="0" stop-color="#fbbf24" stop-opacity="0.30" />
      <stop offset="1" stop-color="#fbbf24" stop-opacity="0" />
    </radialGradient>
    <radialGradient id="bokeh2" cx="92%" cy="18%" r="50%">
      <stop offset="0" stop-color="#22d3ee" stop-opacity="0.22" />
      <stop offset="1" stop-color="#22d3ee" stop-opacity="0" />
    </radialGradient>
    <radialGradient id="bokeh3" cx="86%" cy="36%" r="42%">
      <stop offset="0" stop-color="#a78bfa" stop-opacity="0.24" />
      <stop offset="1" stop-color="#a78bfa" stop-opacity="0" />
    </radialGradient>
    <linearGradient id="neon" x1="0" y1="0" x2="1" y2="0">
      <stop offset="0" stop-color="#22d3ee" />
      <stop offset="0.55" stop-color="#60a5fa" />
      <stop offset="1" stop-color="#a78bfa" />
    </linearGradient>
    <filter id="soft" x="-30%" y="-30%" width="160%" height="160%">
      <feGaussianBlur stdDeviation="18" />
    </filter>
    <filter id="glow" x="-40%" y="-40%" width="180%" height="180%">
      <feGaussianBlur stdDeviation="10" result="blur" />
      <feMerge>
        <feMergeNode in="blur" />
        <feMergeNode in="SourceGraphic" />
      </feMerge>
    </filter>
  </defs>

  <rect width="2400" height="1600" fill="url(#bg)" />
  <rect width="2400" height="1600" fill="url(#bokeh1)" />
  <rect width="2400" height="1600" fill="url(#bokeh2)" />
  <rect width="2400" height="1600" fill="url(#bokeh3)" />

  <g opacity="0.28">
    <circle cx="1940" cy="270" r="190" fill="#fbbf24" filter="url(#soft)" />
    <circle cx="2110" cy="330" r="140" fill="#fb923c" filter="url(#soft)" />
    <circle cx="1760" cy="330" r="120" fill="#22d3ee" filter="url(#soft)" />
    <circle cx="2220" cy="220" r="120" fill="#a78bfa" filter="url(#soft)" />
  </g>

  <g opacity="0.22" fill="none" stroke="rgba(255,255,255,0.12)" stroke-width="10">
    <path d="M1680 420c220-190 420-220 610-40" />
  </g>

  <g opacity="0.95">
    <path d="M0 980h2400v620H0z" fill="url(#desk)" />
    <path d="M680 1120h1040l120 300H560z" fill="rgba(2,6,23,0.75)" />
    <path d="M760 1100h880l78 210H682z" fill="rgba(15,23,42,0.65)" />
    <rect x="780" y="720" width="840" height="420" rx="28" fill="rgba(15,23,42,0.55)" stroke="rgba(255,255,255,0.10)" stroke-width="2" />
    <rect x="815" y="755" width="770" height="350" rx="22" fill="rgba(0,0,0,0.35)" />
    <rect x="815" y="1080" width="770" height="8" rx="4" fill="url(#neon)" opacity="0.75" filter="url(#glow)" />
    <rect x="1020" y="1210" width="360" height="18" rx="9" fill="rgba(255,255,255,0.10)" />
    <circle cx="1200" cy="735" r="8" fill="rgba(255,255,255,0.18)" />
  </g>
</svg>
